<svg xmlns="http://www.w3.org/2000/svg" viewBox="0 0 1920 1080">
  <rect width="100%" height="100%" fill="#DDD"/>
  <path fill="#999" d="M804.145 284.915h-86.67v54.13h68.31v27.95h-68.31v55.21h86.67v29.03h-123.12v-195.21h123.12zm56.29 36.18 2.03 15.66q6.48-12.42 15.39-19.51t21.06-7.09q9.58 0 15.39 4.19l-2.16 24.97q-.68 2.43-1.96 3.45-1.28 1.01-3.44 1.01-2.03 0-6.01-.68-3.98-.67-7.76-.67-5.54 0-9.86 1.62t-7.76 4.66q-3.44 3.03-6.07 7.35-2.64 4.32-4.93 9.86v85.32h-33.35v-138.51h19.58q5.13 0 7.15 1.82 2.03 1.82 2.7 6.55m100.71 0 2.03 15.66q6.48-12.42 15.39-19.51t21.06-7.09q9.58 0 15.39 4.19l-2.16 24.97q-.68 2.43-1.96 3.45-1.28 1.01-3.44 1.01-2.03 0-6.01-.68-3.98-.67-7.76-.67-5.54 0-9.86 1.62t-7.76 4.66q-3.44 3.03-6.07 7.35-2.64 4.32-4.93 9.86v85.32h-33.35v-138.51h19.58q5.13 0 7.15 1.82 2.03 1.82 2.7 6.55m132.57-10.53q15.39 0 28.02 4.99 12.62 5 21.6 14.18 8.97 9.18 13.83 22.41t4.86 29.56q0 16.47-4.86 29.7t-13.83 22.55q-8.98 9.31-21.6 14.31-12.63 5-28.02 5-15.52 0-28.21-5t-21.67-14.31q-8.98-9.32-13.9-22.55-4.93-13.23-4.93-29.7 0-16.33 4.93-29.56 4.92-13.23 13.9-22.41t21.67-14.18q12.69-4.99 28.21-4.99m0 117.04q17.28 0 25.59-11.6 8.3-11.62 8.3-34.03t-8.3-34.15q-8.31-11.75-25.59-11.75-17.55 0-25.98 11.82-8.44 11.81-8.44 34.08 0 22.28 8.44 33.96 8.43 11.67 25.98 11.67m123.26-106.51 2.02 15.66q6.48-12.42 15.39-19.51t21.06-7.09q9.59 0 15.39 4.19l-2.16 24.97q-.67 2.43-1.95 3.45-1.29 1.01-3.45 1.01-2.02 0-6-.68-3.99-.67-7.77-.67-5.53 0-9.85 1.62t-7.76 4.66q-3.45 3.03-6.08 7.35t-4.93 9.86v85.32h-33.34v-138.51h19.57q5.13 0 7.16 1.82 2.02 1.82 2.7 6.55m-647.46 258.93v29.84h-58.86v165.37h-36.32v-165.37h-58.86v-29.84zm49.81 65.07 2.03 15.66q6.48-12.42 15.39-19.51t21.06-7.09q9.58 0 15.39 4.19l-2.16 24.97q-.68 2.43-1.96 3.45-1.28 1.01-3.44 1.01-2.03 0-6.01-.67-3.98-.68-7.76-.68-5.54 0-9.86 1.62t-7.76 4.66q-3.44 3.03-6.08 7.35-2.63 4.32-4.92 9.86v85.32h-33.35v-138.51h19.58q5.13 0 7.15 1.82 2.03 1.82 2.7 6.55m170.37-8.37h26.73l-75.46 176.58q-1.49 3.51-3.85 5.33-2.36 1.83-7.22 1.83h-24.84l25.92-55.62-56.03-128.12h29.3q3.91 0 6.14 1.89t3.31 4.32l29.43 71.82q1.48 3.65 2.49 7.29 1.02 3.64 1.96 7.43 1.22-3.79 2.43-7.5 1.22-3.71 2.7-7.36l27.81-71.68q1.08-2.7 3.58-4.45 2.5-1.76 5.6-1.76m182.12 102.74v-23.36q-14.45.68-24.3 2.5-9.86 1.82-15.8 4.65-5.94 2.84-8.5 6.62-2.57 3.78-2.57 8.24 0 8.77 5.2 12.55t13.57 3.78q10.26 0 17.75-3.71 7.49-3.72 14.65-11.27m-70.47-72.77-5.94-10.67q23.89-21.87 57.51-21.87 12.15 0 21.73 3.99 9.59 3.98 16.2 11.07 6.62 7.08 10.06 16.94 3.44 9.85 3.44 21.6v87.48h-15.12q-4.72 0-7.29-1.42-2.56-1.41-4.05-5.73l-2.97-9.99q-5.26 4.72-10.26 8.3-4.99 3.58-10.39 6.01t-11.55 3.71q-6.14 1.28-13.56 1.28-8.78 0-16.2-2.36-7.43-2.36-12.83-7.09-5.4-4.72-8.37-11.75-2.97-7.02-2.97-16.33 0-5.26 1.76-10.46 1.75-5.2 5.73-9.92 3.99-4.73 10.33-8.92 6.35-4.18 15.59-7.28 9.25-3.11 21.54-5.07 12.28-1.96 28.08-2.36v-8.1q0-13.9-5.94-20.59-5.94-6.68-17.15-6.68-8.1 0-13.43 1.89t-9.38 4.25-7.36 4.25-7.36 1.89q-3.51 0-5.94-1.82t-3.91-4.25m184.95 35.91q6.21 0 10.8-1.69 4.59-1.68 7.63-4.66 3.03-2.96 4.58-7.15 1.56-4.18 1.56-9.18 0-10.26-6.14-16.27-6.15-6.01-18.43-6.01-12.29 0-18.43 6.01t-6.14 16.27q0 4.86 1.55 9.05 1.55 4.18 4.59 7.22t7.69 4.72q4.66 1.69 10.74 1.69m37.66 78.84q0-4.05-2.43-6.61-2.43-2.57-6.61-3.99-4.19-1.42-9.79-2.09t-11.88-1.01-12.96-.61-13.03-1.08q-5.53 3.11-8.98 7.29-3.44 4.19-3.44 9.72 0 3.65 1.82 6.82 1.83 3.17 5.81 5.47 3.98 2.29 10.33 3.57 6.34 1.29 15.52 1.29 9.32 0 16.07-1.42t11.13-3.92q4.39-2.5 6.42-5.94 2.02-3.44 2.02-7.49m-6.61-139.99h39.82v12.41q0 5.94-7.15 7.3l-12.42 2.29q2.83 7.16 2.83 15.66 0 10.26-4.12 18.56-4.11 8.31-11.4 14.11-7.29 5.81-17.22 8.98-9.92 3.17-21.39 3.17-4.05 0-7.83-.4-3.78-.41-7.43-1.09-6.48 3.92-6.48 8.78 0 4.19 3.85 6.14 3.85 1.96 10.19 2.77 6.35.81 14.45 1.01 8.1.21 16.6.88 8.51.67 16.61 2.36t14.44 5.34q6.35 3.64 10.19 9.92 3.85 6.28 3.85 16.13 0 9.18-4.52 17.82t-13.1 15.39q-8.57 6.75-21.06 10.87-12.48 4.12-28.41 4.12-15.66 0-27.27-3.04t-19.31-8.1q-7.69-5.06-11.47-11.68-3.78-6.61-3.78-13.77 0-9.72 5.87-16.27t16.13-10.46q-5.53-2.84-8.77-7.56-3.24-4.73-3.24-12.42 0-3.11 1.14-6.41 1.15-3.31 3.38-6.55t5.6-6.14q3.38-2.9 7.97-5.2-10.53-5.67-16.54-15.12t-6.01-22.14q0-10.26 4.12-18.56 4.12-8.31 11.47-14.18 7.36-5.87 17.42-8.98 10.06-3.1 21.94-3.1 8.91 0 16.74 1.82t14.31 5.34m134.05 98.01v-23.36q-14.44.68-24.3 2.5-9.85 1.82-15.79 4.65-5.94 2.84-8.51 6.62-2.56 3.78-2.56 8.24 0 8.77 5.19 12.55 5.2 3.78 13.57 3.78 10.26 0 17.75-3.71 7.5-3.72 14.65-11.27m-70.47-72.77-5.94-10.67q23.9-21.87 57.51-21.87 12.15 0 21.74 3.99 9.58 3.98 16.2 11.07 6.61 7.08 10.05 16.94 3.45 9.85 3.45 21.6v87.48h-15.12q-4.73 0-7.29-1.42-2.57-1.41-4.05-5.73l-2.97-9.99q-5.27 4.72-10.26 8.3-5 3.58-10.4 6.01t-11.54 3.71-13.57 1.28q-8.77 0-16.2-2.36-7.42-2.36-12.82-7.09-5.4-4.72-8.37-11.75-2.97-7.02-2.97-16.33 0-5.26 1.75-10.46 1.76-5.2 5.74-9.92 3.98-4.73 10.33-8.92 6.34-4.18 15.59-7.28 9.25-3.11 21.53-5.07 12.29-1.96 28.08-2.36v-8.1q0-13.9-5.94-20.59-5.94-6.68-17.14-6.68-8.1 0-13.44 1.89-5.33 1.89-9.38 4.25t-7.36 4.25q-3.3 1.89-7.35 1.89-3.51 0-5.94-1.82t-3.92-4.25m135.41-29.97h33.48v138.51h-33.48zm38.07-40.36q0 4.31-1.76 8.09-1.75 3.78-4.66 6.62-2.9 2.83-6.81 4.52-3.92 1.69-8.37 1.69-4.32 0-8.17-1.69t-6.68-4.52q-2.84-2.84-4.53-6.62-1.68-3.78-1.68-8.09 0-4.46 1.68-8.38 1.69-3.91 4.53-6.75 2.83-2.83 6.68-4.52t8.17-1.69q4.45 0 8.37 1.69 3.91 1.69 6.81 4.52 2.91 2.84 4.66 6.75 1.76 3.92 1.76 8.38m58.32 46.43 2.29 10.94q4.19-4.19 8.84-7.76 4.66-3.58 9.86-6.08t11.14-3.91q5.94-1.42 12.96-1.42 11.34 0 20.11 3.85 8.78 3.84 14.65 10.8 5.87 6.95 8.91 16.6 3.04 9.66 3.04 21.26v88.16h-33.35v-88.16q0-12.69-5.8-19.64-5.81-6.95-17.69-6.95-8.64 0-16.2 3.91-7.56 3.92-14.31 10.67v100.17h-33.34v-138.51h20.38q6.48 0 8.51 6.07"/>
</svg>
